<?xml version="1.0" encoding="UTF-8"?>
<svg width="927" height="32" viewBox="0 0 927 32" fill="none" xmlns="http://www.w3.org/2000/svg">
<path d="M0 31.5V0.5H55.7227C68.8281 0.5 78.8281 4.5 85.7227 12.5C92.6172 20.5 96.0664 31.1641 95.0703 43.4922L95.0703 43.4922C94.0742 55.8203 90.1289 66.4844 83.2344 75.4844C76.3398 84.4844 66.8398 89.9844 54.7344 91.9844H0V31.5ZM19.7266 12.5V79.4844H52.2344C59.8281 78.1641 65.5273 74.9844 69.332 69.9453C73.1367 64.9062 75.0391 58.1641 75.0391 49.7188C75.0391 41.2734 73.1367 34.5312 69.332 29.4922C65.5273 24.4531 59.8281 21.1641 52.2344 19.625H19.7266V12.5Z" fill="black"/>
<path d="M126.562 31.5V0.5H151.406V79.4844H126.562V31.5ZM188.812 0.5V79.4844H164.969V0.5H188.812Z" fill="black"/>
<path d="M228.125 31.5V0.5H283.848C296.953 0.5 306.953 4.5 313.848 12.5C320.742 20.5 324.191 31.1641 323.195 43.4922V43.4922C322.199 55.8203 318.254 66.4844 311.359 75.4844C304.465 84.4844 294.965 89.9844 282.859 91.9844H228.125V31.5ZM247.852 12.5V79.4844H280.359C287.953 78.1641 293.652 74.9844 297.457 69.9453C301.262 64.9062 303.164 58.1641 303.164 49.7188C303.164 41.2734 301.262 34.5312 297.457 29.4922C293.652 24.4531 287.953 21.1641 280.359 19.625H247.852V12.5Z" fill="black"/>
<path d="M354.688 31.5V0.5H410.41C423.516 0.5 433.516 4.5 440.41 12.5C447.305 20.5 450.754 31.1641 449.758 43.4922V43.4922C448.762 55.8203 444.816 66.4844 437.922 75.4844C431.027 84.4844 421.527 89.9844 409.422 91.9844H354.688V31.5ZM374.414 12.5V79.4844H406.922C414.516 78.1641 420.215 74.9844 424.02 69.9453C427.824 64.9062 429.727 58.1641 429.727 49.7188C429.727 41.2734 427.824 34.5312 424.02 29.4922C420.215 24.4531 414.516 21.1641 406.922 19.625H374.414V12.5Z" fill="black"/>
<path d="M481.25 31.5V0.5H536.973C550.078 0.5 560.078 4.5 566.973 12.5C573.867 20.5 577.316 31.1641 576.32 43.4922V43.4922C575.324 55.8203 571.379 66.4844 564.484 75.4844C557.59 84.4844 548.09 89.9844 535.984 91.9844H481.25V31.5ZM500.977 12.5V79.4844H533.484C541.078 78.1641 546.777 74.9844 550.582 69.9453C554.387 64.9062 556.289 58.1641 556.289 49.7188C556.289 41.2734 554.387 34.5312 550.582 29.4922C546.777 24.4531 541.078 21.1641 533.484 19.625H500.977V12.5Z" fill="black"/>
<path d="M607.812 31.5V0.5H632.656V79.4844H607.812V31.5ZM670.062 0.5V79.4844H646.219V0.5H670.062Z" fill="black"/>
<path d="M709.375 31.5V0.5H789.359V12.5H729.102V35.4844H782.93V47.4844H729.102V67.4844H789.359V79.4844H709.375V31.5Z" fill="black"/>
<path d="M817.5 31.5V0.5H897.484V12.5H837.227V35.4844H891.055V47.4844H837.227V67.4844H897.484V79.4844H817.5V31.5Z" fill="black"/>
<path d="M925.625 31.5V0.5H950.469V67.4844H1005.3V79.4844H925.625V31.5Z" fill="black"/>
</svg>
